<?xml version="1.0" encoding="UTF-8" standalone="no"?>
<svg
   width="799.7547"
   height="562.32812"
   viewBox="0 0 1023.686 719.78"
   fill="#000000"
   class="icon"
   version="1.1"
   id="svg9"
   sodipodi:docname="orange2.svg"
   inkscape:version="1.3 (1:1.3+202307231459+0e150ed6c4)"
   xmlns:inkscape="http://www.inkscape.org/namespaces/inkscape"
   xmlns:sodipodi="http://sodipodi.sourceforge.net/DTD/sodipodi-0.dtd"
   xmlns="http://www.w3.org/2000/svg"
   xmlns:svg="http://www.w3.org/2000/svg">
  <defs
     id="defs9" />
  <sodipodi:namedview
     id="namedview9"
     pagecolor="#ffffff"
     bordercolor="#000000"
     borderopacity="0.25"
     inkscape:showpageshadow="2"
     inkscape:pageopacity="0.0"
     inkscape:pagecheckerboard="0"
     inkscape:deskcolor="#d1d1d1"
     inkscape:zoom="1.0325"
     inkscape:cx="400.48426"
     inkscape:cy="280.87167"
     inkscape:window-width="1920"
     inkscape:window-height="1023"
     inkscape:window-x="0"
     inkscape:window-y="0"
     inkscape:window-maximized="1"
     inkscape:current-layer="svg9" />
  <path
     d="m 40.470002,31.99 c -4.42,0 -8.076,-3.576 -8.076,-7.996 0,-4.422 3.498,-7.998 7.904,-7.998 h 0.172 a 8.002,8.002 0 0 1 7.998,7.998 8,8 0 0 1 -7.998,7.996 z m 31.992,0 c -4.42,0 -8.076,-3.576 -8.076,-7.996 0,-4.422 3.498,-7.998 7.904,-7.998 h 0.172 a 8.002,8.002 0 0 1 7.998,7.998 8.004,8.004 0 0 1 -7.998,7.996 z m 31.989998,0 c -4.42,0 -8.075998,-3.576 -8.075998,-7.996 0,-4.422 3.498,-7.998 7.903998,-7.998 h 0.172 a 8.002,8.002 0 0 1 7.998,7.998 8.004,8.004 0 0 1 -7.998,7.996 z"
     fill=""
     id="path1"
     style="fill:#ff7f2a;stroke:#000000;stroke-width:0;stroke-dasharray:none;stroke-opacity:1" />
  <path
     d="M 1015.69,47.986 H 7.9980015 A 7.994,7.994 0 0 1 1.5232077e-6,39.988 V 23.994 C 1.5232077e-6,10.764001 10.762002,5e-7 23.992002,5e-7 H 999.694 c 13.23,0 23.992,10.7640005 23.992,23.9939995 v 15.994 a 7.994,7.994 0 0 1 -7.996,7.998 z M 15.994002,31.99 H 1007.69 v -7.996 c 0,-4.336 -3.656,-7.998 -7.996,-7.998 H 23.992002 a 8.008,8.008 0 0 0 -7.998,7.998 z"
     fill=""
     id="path2"
     style="fill:#ff7f2a;stroke:#000000;stroke-width:0;stroke-dasharray:none;stroke-opacity:1" />
  <path
     d="M 1015.69,719.78 H 7.9980015 A 7.994,7.994 0 0 1 1.5232077e-6,711.782 V 39.988 A 7.994,7.994 0 0 1 7.9980015,31.99 H 1015.69 a 7.994,7.994 0 0 1 7.996,7.998 v 671.794 a 7.994,7.994 0 0 1 -7.996,7.998 z M 15.994002,703.784 H 1007.69 V 47.986 H 15.994002 Z"
     fill=""
     id="path3"
     style="fill:#ff7f2a;stroke:#000000;stroke-width:0;stroke-dasharray:none;stroke-opacity:1" />
  <path
     d="m 55.982002,591.82 a 7.994,7.994 0 0 1 -7.998,-7.998 V 87.974 a 7.994,7.994 0 0 1 7.998,-7.998 7.994,7.994 0 0 1 7.998,7.998 v 495.848 a 7.994,7.994 0 0 1 -7.998,7.998 z"
     fill=""
     id="path4"
     style="fill:#ff7f2a;stroke:#000000;stroke-width:0;stroke-dasharray:none;stroke-opacity:1" />
  <path
     id="path4-0"
     style="fill:#ff7f2a;stroke:#000000;stroke-width:0;stroke-dasharray:none;stroke-opacity:1"
     d="m 1015.7012,21.15431 a 4.3511675,4.0402388 0 0 0 -4.3544,4.07285 v 250.58202 a 4.3511675,4.0402388 0 0 0 4.3544,4.07285 4.3511675,4.0402388 0 0 0 4.3519,-4.07285 V 25.22716 a 4.3511675,4.0402388 0 0 0 -4.3519,-4.07285 z" />
  <path
     id="path4-0-0"
     style="fill:#ff7f2a;stroke:#000000;stroke-width:0;stroke-dasharray:none;stroke-opacity:1"
     d="m 7.9303514,25.43881 a 4.3511675,4.0402388 0 0 0 -4.3544,4.07285 v 250.58202 a 4.3511675,4.0402388 0 0 0 4.3544,4.07285 4.3511675,4.0402388 0 0 0 4.3519006,-4.07285 V 29.51166 A 4.3511675,4.0402388 0 0 0 7.9303514,25.43881 Z" />
  <path
     d="M 967.702,591.82 H 55.982002 c -4.42,0 -7.998,-3.578 -7.998,-7.998 0,-4.42 3.578,-7.998 7.998,-7.998 H 967.702 c 4.422,0 8,3.578 8,7.998 0,4.42 -3.578,7.998 -8,7.998 z M 791.756,639.804 H 231.928 a 7.994,7.994 0 0 1 -7.998,-7.998 7.994,7.994 0 0 1 7.998,-7.998 h 559.828 a 7.992,7.992 0 0 1 7.996,7.998 7.99,7.99 0 0 1 -7.996,7.998 z M 647.8,671.794 H 375.884 a 7.994,7.994 0 0 1 -7.998,-7.998 7.992,7.992 0 0 1 7.998,-7.996 H 647.8 c 4.422,0 8,3.576 8,7.996 a 7.994,7.994 0 0 1 -8,7.998 z M 951.71,175.946 c -13.23,0 -23.996,-10.762 -23.996,-23.992 0,-13.23 10.766,-23.994 23.996,-23.994 13.23,0 23.992,10.764 23.992,23.994 0,13.23 -10.762,23.992 -23.992,23.992 z m 0,-31.99 c -4.406,0 -8,3.584 -8,7.998 a 8.008,8.008 0 0 0 8,7.996 8.008,8.008 0 0 0 7.996,-7.996 8.008,8.008 0 0 0 -7.996,-7.998 z M 695.788,447.862 c -13.23,0 -23.992,-10.762 -23.992,-23.992 0,-13.23 10.762,-23.992 23.992,-23.992 13.23,0 23.992,10.762 23.992,23.992 0,13.23 -10.762,23.992 -23.992,23.992 z m 0,-31.99 c -4.406,0 -8,3.594 -8,7.998 0,4.404 3.594,7.998 8,7.998 4.402,0 7.996,-3.594 7.996,-7.998 0,-4.404 -3.594,-7.998 -7.996,-7.998 z M 391.88,303.908 c -13.23,0 -23.994,-10.764 -23.994,-23.994 0,-13.228 10.762,-23.992 23.994,-23.992 13.23,0 23.994,10.764 23.994,23.992 -0.002,13.23 -10.766,23.994 -23.994,23.994 z m 0,-31.99 a 8.006,8.006 0 0 0 -7.998,7.996 c 0,4.414 3.592,7.998 7.998,7.998 4.406,0 7.998,-3.584 7.998,-7.998 a 8.01,8.01 0 0 0 -7.998,-7.996 z"
     fill=""
     id="path5"
     style="fill:#ff7f2a;stroke:#000000;stroke-width:0;stroke-dasharray:none;stroke-opacity:1" />
  <path
     d="m 119.962,495.848 c -13.23,0 -23.991998,-10.764 -23.991998,-23.994 0,-13.23 10.761998,-23.992 23.991998,-23.992 13.23,0 23.992,10.762 23.992,23.992 0,13.23 -10.762,23.994 -23.992,23.994 z m 0,-31.99 a 8.014,8.014 0 0 0 -7.998,7.996 8.014,8.014 0 0 0 7.998,7.998 8.012,8.012 0 0 0 7.998,-7.998 8.012,8.012 0 0 0 -7.998,-7.996 z"
     fill=""
     id="path6"
     style="fill:#ff7f2a;stroke:#000000;stroke-width:0;stroke-dasharray:none;stroke-opacity:1" />
  <path
     d="m 131.084,468.732 a 7.936,7.936 0 0 1 -3.888,-1.016 7.994,7.994 0 0 1 -3.092,-10.886 c 4.202,-7.544 104.812,-184.912 251.782,-184.912 a 7.992,7.992 0 0 1 7.998,7.996 7.994,7.994 0 0 1 -7.998,7.998 c -137.662,0 -236.834,174.948 -237.818,176.728 a 7.992,7.992 0 0 1 -6.984,4.092 z"
     fill=""
     id="path7"
     style="fill:#ff7f2a;stroke:#000000;stroke-width:0;stroke-dasharray:none;stroke-opacity:1" />
  <path
     d="m 679.978,430.682 c -71.804,0 -116.746,-41.956 -156.39,-78.984 -35.13,-32.802 -68.306,-63.786 -115.714,-63.786 a 7.994,7.994 0 0 1 -7.998,-7.998 7.992,7.992 0 0 1 7.998,-7.996 c 53.718,0 89.128,33.076 126.632,68.088 39.316,36.724 79.976,74.682 145.472,74.682 a 7.99,7.99 0 0 1 7.996,7.996 7.992,7.992 0 0 1 -7.996,7.998 z"
     fill=""
     id="path8"
     style="fill:#ff7f2a;stroke:#000000;stroke-width:0;stroke-dasharray:none;stroke-opacity:1" />
  <path
     d="m 709.392,423.542 a 7.984,7.984 0 0 1 -7.75,-6.014 7.998,7.998 0 0 1 5.766,-9.732 C 825.65,377.524 903.94,295.932 940.084,165.284 c 1.156,-4.256 5.546,-6.738 9.844,-5.576 a 7.99,7.99 0 0 1 5.558,9.842 C 917.716,306.124 835.588,391.49 711.372,423.292 a 7.88,7.88 0 0 1 -1.98,0.25 z"
     fill=""
     id="path9"
     style="fill:#ff7f2a;stroke:#000000;stroke-width:0;stroke-dasharray:none;stroke-opacity:1" />
</svg>
