<?xml version="1.0" encoding="UTF-8" standalone="no"?>
<svg
   width="804.7547"
   height="567.32812"
   viewBox="0 0 1030.086 726.18"
   fill="#000000"
   class="icon"
   version="1.1"
   id="svg9"
   sodipodi:docname="favicon2.svg"
   inkscape:version="1.3 (1:1.3+202307231459+0e150ed6c4)"
   xmlns:inkscape="http://www.inkscape.org/namespaces/inkscape"
   xmlns:sodipodi="http://sodipodi.sourceforge.net/DTD/sodipodi-0.dtd"
   xmlns="http://www.w3.org/2000/svg"
   xmlns:svg="http://www.w3.org/2000/svg">
  <defs
     id="defs9" />
  <sodipodi:namedview
     id="namedview9"
     pagecolor="#ffffff"
     bordercolor="#000000"
     borderopacity="0.25"
     inkscape:showpageshadow="2"
     inkscape:pageopacity="0.0"
     inkscape:pagecheckerboard="0"
     inkscape:deskcolor="#d1d1d1"
     inkscape:zoom="1.0325"
     inkscape:cx="402.42131"
     inkscape:cy="283.77724"
     inkscape:window-width="1920"
     inkscape:window-height="1023"
     inkscape:window-x="0"
     inkscape:window-y="0"
     inkscape:window-maximized="1"
     inkscape:current-layer="svg9" />
  <path
     d="m 43.670001,35.19 c -4.42,0 -8.076,-3.576 -8.076,-7.996 0,-4.422 3.498,-7.998 7.904,-7.998 h 0.172 a 8.002,8.002 0 0 1 7.998,7.998 8,8 0 0 1 -7.998,7.996 z m 31.992,0 c -4.42,0 -8.076,-3.576 -8.076,-7.996 0,-4.422 3.498,-7.998 7.904,-7.998 h 0.172 a 8.002,8.002 0 0 1 7.998,7.998 8.004,8.004 0 0 1 -7.998,7.996 z m 31.989999,0 c -4.42,0 -8.075999,-3.576 -8.075999,-7.996 0,-4.422 3.497999,-7.998 7.903999,-7.998 h 0.172 a 8.002,8.002 0 0 1 7.998,7.998 8.004,8.004 0 0 1 -7.998,7.996 z"
     fill=""
     id="path1"
     style="fill:#00ffff;stroke:#000000;stroke-width:6.4;stroke-dasharray:none;stroke-opacity:1" />
  <path
     d="M 1018.89,51.186 H 11.198001 A 7.994,7.994 0 0 1 3.2000011,43.188 V 27.194 C 3.2000011,13.964 13.962001,3.2 27.192001,3.2 H 1002.894 c 13.23,0 23.992,10.764 23.992,23.994 v 15.994 a 7.994,7.994 0 0 1 -7.996,7.998 z M 19.194001,35.19 H 1010.89 v -7.996 c 0,-4.336 -3.656,-7.998 -7.996,-7.998 H 27.192001 a 8.008,8.008 0 0 0 -7.998,7.998 z"
     fill=""
     id="path2"
     style="fill:#00ffff;stroke:#000000;stroke-width:6.4;stroke-dasharray:none;stroke-opacity:1" />
  <path
     d="M 1018.89,722.98 H 11.198001 A 7.994,7.994 0 0 1 3.2000011,714.982 V 43.188 A 7.994,7.994 0 0 1 11.198001,35.19 H 1018.89 a 7.994,7.994 0 0 1 7.996,7.998 v 671.794 a 7.994,7.994 0 0 1 -7.996,7.998 z M 19.194001,706.984 H 1010.89 V 51.186 H 19.194001 Z"
     fill=""
     id="path3"
     style="fill:#00ffff;stroke:#000000;stroke-width:6.4;stroke-dasharray:none;stroke-opacity:1" />
  <path
     d="m 59.182001,595.02 a 7.994,7.994 0 0 1 -7.998,-7.998 V 91.174 a 7.994,7.994 0 0 1 7.998,-7.998 7.994,7.994 0 0 1 7.998,7.998 v 495.848 a 7.994,7.994 0 0 1 -7.998,7.998 z"
     fill=""
     id="path4"
     style="fill:#00ffff;stroke:#000000;stroke-width:6.4;stroke-dasharray:none;stroke-opacity:1" />
  <path
     id="path4-0"
     style="fill:#00ffff;stroke:#000000;stroke-width:0;stroke-dasharray:none;stroke-opacity:1"
     d="m 1018.9012,24.35431 a 4.3511675,4.0402388 0 0 0 -4.3544,4.07285 v 250.58202 a 4.3511675,4.0402388 0 0 0 4.3544,4.07285 4.3511675,4.0402388 0 0 0 4.3519,-4.07285 V 28.42716 a 4.3511675,4.0402388 0 0 0 -4.3519,-4.07285 z" />
  <path
     id="path4-0-0"
     style="fill:#00ffff;stroke:#000000;stroke-width:0;stroke-dasharray:none;stroke-opacity:1"
     d="m 11.130351,28.63881 a 4.3511675,4.0402388 0 0 0 -4.3544,4.07285 v 250.58202 a 4.3511675,4.0402388 0 0 0 4.3544,4.07285 4.3511675,4.0402388 0 0 0 4.3519,-4.07285 V 32.71166 a 4.3511675,4.0402388 0 0 0 -4.3519,-4.07285 z" />
  <path
     d="M 970.902,595.02 H 59.182001 c -4.42,0 -7.998,-3.578 -7.998,-7.998 0,-4.42 3.578,-7.998 7.998,-7.998 H 970.902 c 4.422,0 8,3.578 8,7.998 0,4.42 -3.578,7.998 -8,7.998 z M 794.956,643.004 H 235.128 a 7.994,7.994 0 0 1 -7.998,-7.998 7.994,7.994 0 0 1 7.998,-7.998 h 559.828 a 7.992,7.992 0 0 1 7.996,7.998 7.99,7.99 0 0 1 -7.996,7.998 z M 651,674.994 H 379.084 a 7.994,7.994 0 0 1 -7.998,-7.998 7.992,7.992 0 0 1 7.998,-7.996 H 651 c 4.422,0 8,3.576 8,7.996 a 7.994,7.994 0 0 1 -8,7.998 z M 954.91,179.146 c -13.23,0 -23.996,-10.762 -23.996,-23.992 0,-13.23 10.766,-23.994 23.996,-23.994 13.23,0 23.992,10.764 23.992,23.994 0,13.23 -10.762,23.992 -23.992,23.992 z m 0,-31.99 c -4.406,0 -8,3.584 -8,7.998 a 8.008,8.008 0 0 0 8,7.996 8.008,8.008 0 0 0 7.996,-7.996 8.008,8.008 0 0 0 -7.996,-7.998 z M 698.988,451.062 c -13.23,0 -23.992,-10.762 -23.992,-23.992 0,-13.23 10.762,-23.992 23.992,-23.992 13.23,0 23.992,10.762 23.992,23.992 0,13.23 -10.762,23.992 -23.992,23.992 z m 0,-31.99 c -4.406,0 -8,3.594 -8,7.998 0,4.404 3.594,7.998 8,7.998 4.402,0 7.996,-3.594 7.996,-7.998 0,-4.404 -3.594,-7.998 -7.996,-7.998 z M 395.08,307.108 c -13.23,0 -23.994,-10.764 -23.994,-23.994 0,-13.228 10.762,-23.992 23.994,-23.992 13.23,0 23.994,10.764 23.994,23.992 -0.002,13.23 -10.766,23.994 -23.994,23.994 z m 0,-31.99 a 8.006,8.006 0 0 0 -7.998,7.996 c 0,4.414 3.592,7.998 7.998,7.998 4.406,0 7.998,-3.584 7.998,-7.998 a 8.01,8.01 0 0 0 -7.998,-7.996 z"
     fill=""
     id="path5"
     style="fill:#00ffff;stroke:#000000;stroke-width:6.4;stroke-dasharray:none;stroke-opacity:1" />
  <path
     d="m 123.162,499.048 c -13.23,0 -23.991999,-10.764 -23.991999,-23.994 0,-13.23 10.761999,-23.992 23.991999,-23.992 13.23,0 23.992,10.762 23.992,23.992 0,13.23 -10.762,23.994 -23.992,23.994 z m 0,-31.99 a 8.014,8.014 0 0 0 -7.998,7.996 8.014,8.014 0 0 0 7.998,7.998 8.012,8.012 0 0 0 7.998,-7.998 8.012,8.012 0 0 0 -7.998,-7.996 z"
     fill=""
     id="path6"
     style="fill:#00ffff;stroke:#000000;stroke-width:6.4;stroke-dasharray:none;stroke-opacity:1" />
  <path
     d="m 134.284,471.932 a 7.936,7.936 0 0 1 -3.888,-1.016 7.994,7.994 0 0 1 -3.092,-10.886 c 4.202,-7.544 104.812,-184.912 251.782,-184.912 a 7.992,7.992 0 0 1 7.998,7.996 7.994,7.994 0 0 1 -7.998,7.998 c -137.662,0 -236.834,174.948 -237.818,176.728 a 7.992,7.992 0 0 1 -6.984,4.092 z"
     fill=""
     id="path7"
     style="fill:#00ffff;stroke:#000000;stroke-width:6.4;stroke-dasharray:none;stroke-opacity:1" />
  <path
     d="m 683.178,433.882 c -71.804,0 -116.746,-41.956 -156.39,-78.984 -35.13,-32.802 -68.306,-63.786 -115.714,-63.786 a 7.994,7.994 0 0 1 -7.998,-7.998 7.992,7.992 0 0 1 7.998,-7.996 c 53.718,0 89.128,33.076 126.632,68.088 39.316,36.724 79.976,74.682 145.472,74.682 a 7.99,7.99 0 0 1 7.996,7.996 7.992,7.992 0 0 1 -7.996,7.998 z"
     fill=""
     id="path8"
     style="fill:#00ffff;stroke:#000000;stroke-width:6.4;stroke-dasharray:none;stroke-opacity:1" />
  <path
     d="m 712.592,426.742 a 7.984,7.984 0 0 1 -7.75,-6.014 7.998,7.998 0 0 1 5.766,-9.732 C 828.85,380.724 907.14,299.132 943.284,168.484 c 1.156,-4.256 5.546,-6.738 9.844,-5.576 a 7.99,7.99 0 0 1 5.558,9.842 C 920.916,309.324 838.788,394.69 714.572,426.492 a 7.88,7.88 0 0 1 -1.98,0.25 z"
     fill=""
     id="path9"
     style="fill:#00ffff;stroke:#000000;stroke-width:6.4;stroke-dasharray:none;stroke-opacity:1" />
</svg>
